<svg xmlns="http://www.w3.org/2000/svg" xmlns:xlink="http://www.w3.org/1999/xlink" width="500" zoomAndPan="magnify" viewBox="0 0 375 374.999991" height="500" preserveAspectRatio="xMidYMid meet" version="1.0"><defs><clipPath id="d5a8e26aa3"><path d="M 23.601562 60 L 348 60 L 348 314 L 23.601562 314 Z M 23.601562 60 " clip-rule="nonzero"/></clipPath><clipPath id="b647902429"><path d="M 23.601562 311 L 189 311 L 189 317.449219 L 23.601562 317.449219 Z M 23.601562 311 " clip-rule="nonzero"/></clipPath></defs><g clip-path="url(#d5a8e26aa3)"><path fill="#ffd60a" d="M 335.351562 118.515625 C 321.875 89.921875 299.164062 70.222656 271.398438 63.042969 C 249.964844 57.484375 227.402344 59.917969 206.105469 70.050781 L 168.59375 70.050781 C 167.171875 70.050781 166.019531 71.203125 166.019531 72.621094 C 166.019531 74.039062 167.171875 75.191406 168.59375 75.191406 L 196.644531 75.191406 C 184.261719 82.636719 172.867188 92.628906 163.269531 104.5625 L 26.175781 104.5625 C 24.75 104.5625 23.601562 105.710938 23.601562 107.128906 C 23.601562 108.546875 24.75 109.699219 26.175781 109.699219 L 159.285156 109.699219 C 152.683594 118.707031 147.128906 128.59375 142.707031 139.148438 L 128.796875 139.148438 C 127.371094 139.148438 126.222656 140.300781 126.222656 141.71875 C 126.222656 143.136719 127.371094 144.285156 128.796875 144.285156 L 140.644531 144.285156 C 138.707031 149.371094 136.996094 154.6875 135.570312 160.167969 C 134.40625 164.65625 133.484375 169.199219 132.738281 173.710938 L 26.175781 173.710938 C 24.75 173.710938 23.601562 174.863281 23.601562 176.28125 C 23.601562 177.699219 24.75 178.851562 26.175781 178.851562 L 131.992188 178.851562 C 129.078125 200.933594 131.15625 222.898438 138.023438 242.835938 L 26.175781 242.835938 C 24.75 242.835938 23.601562 243.984375 23.601562 245.402344 C 23.601562 246.824219 24.75 247.972656 26.175781 247.972656 L 139.863281 247.972656 C 144.101562 258.832031 149.691406 268.703125 156.558594 277.394531 L 26.175781 277.394531 C 24.75 277.394531 23.601562 278.546875 23.601562 279.964844 C 23.601562 281.382812 24.75 282.535156 26.175781 282.535156 L 160.925781 282.535156 C 173.570312 296.574219 189.464844 306.410156 207 310.953125 C 214.523438 312.894531 222.101562 313.828125 229.648438 313.828125 C 279.4375 313.828125 327.425781 273.148438 342.832031 213.800781 C 351.40625 180.78125 348.746094 146.941406 335.351562 118.515625 Z M 213.414062 286.238281 C 194.292969 281.265625 178.445312 267.738281 168.417969 247.972656 L 174.382812 247.972656 C 175.804688 247.972656 176.953125 246.820312 176.953125 245.402344 C 176.953125 243.984375 175.804688 242.832031 174.382812 242.832031 L 166.019531 242.832031 C 162.070312 233.773438 159.433594 223.898438 158.15625 213.410156 L 192.132812 213.410156 C 193.554688 213.410156 194.707031 212.257812 194.707031 210.839844 C 194.707031 209.421875 193.554688 208.269531 192.132812 208.269531 L 157.640625 208.269531 C 156.894531 198.613281 157.332031 188.738281 158.945312 178.847656 L 193.417969 178.847656 C 194.839844 178.847656 195.992188 177.695312 195.992188 176.277344 C 195.992188 174.859375 194.839844 173.710938 193.417969 173.710938 L 159.886719 173.710938 C 160.359375 171.359375 160.867188 169.050781 161.4375 166.851562 C 163.503906 158.953125 166.265625 151.382812 169.605469 144.285156 L 204.378906 144.285156 C 205.800781 144.285156 206.949219 143.136719 206.949219 141.71875 C 206.949219 140.300781 205.800781 139.148438 204.378906 139.148438 L 172.148438 139.148438 C 178.066406 127.871094 185.460938 117.988281 194.1875 109.699219 L 227.480469 109.699219 C 228.902344 109.699219 230.054688 108.546875 230.054688 107.128906 C 230.054688 105.710938 228.902344 104.5625 227.480469 104.5625 L 199.996094 104.5625 C 215.054688 92.226562 232.082031 85.707031 248.882812 85.707031 C 254.292969 85.707031 259.675781 86.378906 264.960938 87.75 C 285.617188 93.09375 302.421875 108.367188 312.265625 130.765625 C 322.203125 153.375 323.871094 180.488281 316.960938 207.113281 C 302.753906 261.832031 256.304688 297.332031 213.414062 286.238281 Z M 213.414062 286.238281 " fill-opacity="1" fill-rule="nonzero"/></g><path fill="#ffd60a" d="M 123.085938 213.410156 C 124.507812 213.410156 125.65625 212.257812 125.65625 210.839844 C 125.65625 209.421875 124.507812 208.269531 123.085938 208.269531 L 71.785156 208.269531 C 70.363281 208.269531 69.214844 209.421875 69.214844 210.839844 C 69.214844 212.257812 70.363281 213.410156 71.785156 213.410156 Z M 123.085938 213.410156 " fill-opacity="1" fill-rule="nonzero"/><path fill="#ffd60a" d="M 71.785156 75.191406 L 138.546875 75.191406 C 139.96875 75.191406 141.117188 74.039062 141.117188 72.621094 C 141.117188 71.203125 139.96875 70.050781 138.546875 70.050781 L 71.785156 70.050781 C 70.363281 70.050781 69.214844 71.203125 69.214844 72.621094 C 69.214844 74.039062 70.367188 75.191406 71.785156 75.191406 Z M 71.785156 75.191406 " fill-opacity="1" fill-rule="nonzero"/><g clip-path="url(#b647902429)"><path fill="#ffd60a" d="M 185.804688 311.953125 L 26.175781 311.953125 C 24.75 311.953125 23.601562 313.105469 23.601562 314.523438 C 23.601562 315.941406 24.75 317.09375 26.175781 317.09375 L 185.804688 317.09375 C 187.226562 317.09375 188.375 315.941406 188.375 314.523438 C 188.375 313.105469 187.226562 311.953125 185.804688 311.953125 Z M 185.804688 311.953125 " fill-opacity="1" fill-rule="nonzero"/></g><path fill="#ffd60a" d="M 273.792969 182.535156 L 215.292969 152.082031 C 214.148438 151.484375 212.730469 151.835938 211.992188 152.894531 C 211.253906 153.960938 211.417969 155.402344 212.378906 156.269531 L 246.039062 186.574219 L 221.160156 216.257812 C 220.339844 217.238281 220.363281 218.671875 221.214844 219.625 C 221.71875 220.1875 222.421875 220.480469 223.128906 220.480469 C 223.625 220.480469 224.125 220.335938 224.5625 220.042969 L 274.035156 186.949219 C 274.789062 186.441406 275.21875 185.578125 275.167969 184.671875 C 275.125 183.765625 274.597656 182.953125 273.792969 182.535156 Z M 273.792969 182.535156 " fill-opacity="1" fill-rule="nonzero"/></svg>